# 3ds Max Wavefront OBJ Exporter v0.97b - (c)2007 guruware
# File Created: 14.07.2016 12:32:33

#
# object Box002
#

v  -18.5155 -18.5980 -20.3799
v  -18.5216 18.3069 -20.3940
v  18.5872 18.3191 -20.4226
v  18.5810 -18.6102 -20.4083
v  -18.4900 -18.5725 20.2712
v  18.5556 -18.5847 20.2998
v  18.5634 18.2954 20.3181
v  -18.4980 18.2833 20.2898
v  -18.4979 -20.3451 -18.5742
v  18.5632 -20.3730 -18.5862
v  18.5398 -20.3185 18.5135
v  -18.4746 -20.2907 18.5016
v  20.3579 -18.5984 -18.5922
v  20.3787 18.3101 -18.6011
v  20.3198 18.2849 18.5266
v  20.3001 -18.5736 18.5182
v  18.6574 20.2952 -18.6804
v  -18.5882 20.2580 -18.6644
v  -18.5595 20.1912 18.5865
v  18.6284 20.2277 18.6022
v  -20.3202 18.3079 -18.5989
v  -20.2963 -18.5949 -18.5886
v  -20.2319 -18.5672 18.5118
v  -20.2549 18.2798 18.5216
# 24 vertices

vn -0.3422 -0.3489 -0.8725
vn -0.3439 0.3142 -0.8849
vn 0.3472 0.3134 -0.8839
vn 0.3451 -0.3487 -0.8714
vn -0.3434 -0.3481 0.8723
vn 0.3452 -0.3481 0.8716
vn 0.3475 0.3149 0.8832
vn -0.3454 0.3155 0.8838
vn -0.3371 -0.8803 -0.3340
vn 0.3395 -0.8794 -0.3338
vn 0.3395 -0.8786 0.3359
vn -0.3375 -0.8793 0.3360
vn 0.8765 -0.3447 -0.3361
vn 0.8882 0.3101 -0.3390
vn 0.8877 0.3103 0.3401
vn 0.8761 -0.3442 0.3376
vn -0.0010 1.0000 0.0018
vn -0.8852 0.3148 -0.3425
vn -0.8740 -0.3476 -0.3394
vn -0.8741 -0.3468 0.3402
vn -0.8852 0.3146 0.3427
vn -0.4931 0.7167 -0.4932
vn 0.4989 0.7126 -0.4933
vn -0.4933 0.7174 0.4920
vn 0.4984 0.7136 0.4924
# 25 vertex normals

vt 0.0395 0.3238 -19.9930
vt 0.0395 0.0398 -20.0069
vt 0.3250 0.0397 -20.0350
vt 0.3249 0.3239 -20.0209
vt 0.0395 0.4031 19.8864
vt 0.3240 0.4031 19.9144
vt 0.3240 0.6863 19.9324
vt 0.0393 0.6862 19.9047
vt 0.3668 0.0023 -18.2216
vt 0.6804 0.0023 -18.2334
vt 0.6801 0.3163 18.1621
vt 0.3669 0.3161 18.1504
vt 0.6850 0.0023 -18.2393
vt 0.9974 0.0023 -18.2480
vt 0.9971 0.3165 18.1750
vt 0.6852 0.3163 18.1666
vt 0.3656 0.3659 -18.3258
vt 0.6808 0.3659 -18.3101
vt 0.6807 0.6811 18.2337
vt 0.3660 0.6814 18.2491
vt 0.6854 0.3659 -18.2459
vt 0.9977 0.3659 -18.2358
vt 0.9975 0.6798 18.1604
vt 0.6857 0.6800 18.1700
vt 0.0223 0.3566 -18.2216
vt 0.0023 0.3255 -18.2358
vt 0.3580 0.3414 -18.2393
vt 0.3266 0.3613 -18.2334
vt 0.0065 0.0240 -18.2459
vt 0.0372 0.0023 -18.3101
vt 0.3422 0.0054 -18.3258
vt 0.3622 0.0381 -18.2480
vt 0.0193 0.3721 18.1504
vt 0.0024 0.4049 18.1604
vt 0.3552 0.3826 18.1666
vt 0.3220 0.3659 18.1621
vt 0.0082 0.7050 18.1700
vt 0.0406 0.7235 18.2337
vt 0.3443 0.7187 18.2491
vt 0.3610 0.6845 18.1750
vt 0.0023 0.0415 -18.2459
vt 0.3238 0.0023 -18.3258
vt 0.3621 0.3221 -18.2393
vt 0.0414 0.3611 -18.2216
vt 0.0378 0.3659 18.1504
vt 0.3610 0.4014 18.1666
vt 0.3262 0.7236 18.2491
vt 0.0023 0.6879 18.1700
vt 0.7547 0.6861 -18.2334
vt 0.7842 0.6846 -18.2393
vt 0.7842 0.9100 18.1666
vt 0.7547 0.9114 18.1621
vt 0.8182 0.9091 18.1504
vt 0.7888 0.9106 18.1604
vt 0.7888 0.6859 -18.2358
vt 0.8182 0.6846 -18.2216
vt 0.6854 0.6865 -18.2480
vt 0.7155 0.6846 -18.3258
vt 0.7155 0.9152 18.2491
vt 0.6854 0.9162 18.1750
vt 0.7201 0.6856 -18.3101
vt 0.7501 0.6846 -18.2459
vt 0.7501 0.9134 18.1700
vt 0.7201 0.9152 18.2337
# 64 texture coords

g Box002
s 1
f 1/1/1 2/2/2 3/3/3 4/4/4 
f 5/5/5 6/6/6 7/7/7 8/8/8 
f 9/9/9 10/10/10 11/11/11 12/12/12 
f 13/13/13 14/14/14 15/15/15 16/16/16 
s 2
f 17/17/17 18/18/17 19/19/17 20/20/17 
s 1
f 21/21/18 22/22/19 23/23/20 24/24/21 
f 9/25/9 22/26/19 1/1/1 
f 4/4/4 13/27/13 10/28/10 
f 21/29/18 18/30/22 2/2/2 
f 3/3/3 17/31/23 14/32/14 
f 12/33/12 5/5/5 23/34/20 
f 16/35/16 6/6/6 11/36/11 
f 24/37/21 8/8/8 19/38/24 
f 20/39/25 7/7/7 15/40/15 
f 1/1/1 22/26/19 21/41/18 2/2/2 
f 2/2/2 18/30/22 17/42/23 3/3/3 
f 3/3/3 14/32/14 13/43/13 4/4/4 
f 4/4/4 10/28/10 9/44/9 1/1/1 
f 5/5/5 12/45/12 11/36/11 6/6/6 
f 6/6/6 16/46/16 15/40/15 7/7/7 
f 7/7/7 20/47/25 19/38/24 8/8/8 
f 8/8/8 24/48/21 23/34/20 5/5/5 
f 10/49/10 13/50/13 16/51/16 11/52/11 
f 12/53/12 23/54/20 22/55/19 9/56/9 
f 14/57/14 17/58/23 20/59/25 15/60/15 
f 18/61/22 21/62/18 24/63/21 19/64/24 
# 18 polygons - 8 triangles

