# 3ds Max Wavefront OBJ Exporter v0.97b - (c)2007 guruware
# File Created: 22.06.2016 00:48:19

#
# object Box001
#

v  -19.6851 -19.6850 19.6850
v  -19.6850 -19.6850 -19.6851
v  19.6851 -19.6850 -19.6850
v  19.6850 -19.6851 19.6851
v  19.6851 19.6850 -19.6850
v  -19.6850 19.6851 -19.6851
v  -19.6851 19.6850 19.6850
v  19.6850 19.6850 19.6851
# 8 vertices

vn -0.0000 -1.0000 -0.0000
vn 0.0000 1.0000 0.0000
vn 1.0000 -0.0000 0.0000
vn 0.0000 0.0000 -1.0000
vn -1.0000 0.0000 -0.0000
vn -0.0000 -0.0000 1.0000
# 6 vertex normals

vt 0.6139 0.7398 0.0000
vt 0.3741 0.7398 0.0000
vt 0.3741 0.5000 0.0000
vt 0.6139 0.5000 0.0000
vt 0.3741 0.2601 0.0000
vt 0.3741 0.0203 0.0000
vt 0.6139 0.0203 0.0000
vt 0.6139 0.2601 0.0000
vt 0.1343 0.5000 0.0000
vt 0.1343 0.2601 0.0000
vt 0.6139 0.9796 0.0000
vt 0.3741 0.9796 0.0000
vt 0.8537 0.2601 0.0000
vt 0.8537 0.5000 0.0000
# 14 texture coords

g Box001
s 2
f 1/1/1 2/2/1 3/3/1 4/4/1 
s 4
f 5/5/2 6/6/2 7/7/2 8/8/2 
s 8
f 3/3/3 5/5/3 8/8/3 4/4/3 
s 16
f 2/9/4 6/10/4 5/5/4 3/3/4 
s 32
f 1/1/5 7/11/5 6/12/5 2/2/5 
s 64
f 4/4/6 8/8/6 7/13/6 1/14/6 
# 6 polygons

